# xmcd CD database file
#
# Track frame offsets:
#	150
#	40153
#	114073
#	168831
#	223616
#	257615
#
# Disc length: 3571 seconds
#
# Revision: 0
# Processed by: cddbd v1.5.2PL0 Copyright (c) Steve Scherf et al.
# Submitted via: CDex 1.51
#
DISCID=430df106
DTITLE=Rabih Abou-Khalil - Trouble in Jerusalem
DYEAR=2010
DGENRE=Jazz
TTITLE0=Jerusalem
TTITLE1=Lament
TTITLE2=Gerusalemme Liberata
TTITLE3=Oncw Upon a Dervish
TTITLE4=Saladin and Nathan the Wise
TTITLE5=A Prayer for Tolerance
EXTD=YEAR: 2010
EXTT0=
EXTT1=
EXTT2=
EXTT3=
EXTT4=
EXTT5=
PLAYORDER=
